<svg xmlns="http://www.w3.org/2000/svg" version="1.1" xmlns:xlink="http://www.w3.org/1999/xlink" xmlns:svgjs="http://svgjs.com/svgjs" width="1440" height="250" preserveAspectRatio="none" viewBox="0 0 1440 250"><g mask="url(&quot;#SvgjsMask1269&quot;)" fill="none"><path d="M14 250L264 0L411 0L161 250z" fill="url(#SvgjsLinearGradient1270)"></path><path d="M245.60000000000002 250L495.6 0L533.1 0L283.1 250z" fill="url(#SvgjsLinearGradient1270)"></path><path d="M482.20000000000005 250L732.2 0L877.7 0L627.7 250z" fill="url(#SvgjsLinearGradient1270)"></path><path d="M734.8000000000001 250L984.8000000000001 0L1022.3000000000001 0L772.3000000000001 250z" fill="url(#SvgjsLinearGradient1270)"></path><path d="M1421 250L1171 0L983.5 0L1233.5 250z" fill="url(#SvgjsLinearGradient1271)"></path><path d="M1173.4 250L923.4000000000001 0L882.9000000000001 0L1132.9 250z" fill="url(#SvgjsLinearGradient1271)"></path><path d="M919.8 250L669.8 0L411.79999999999995 0L661.8 250z" fill="url(#SvgjsLinearGradient1271)"></path><path d="M713.1999999999999 250L463.19999999999993 0L286.19999999999993 0L536.1999999999999 250z" fill="url(#SvgjsLinearGradient1271)"></path><path d="M1258.3887906795924 250L1440 68.38879067959246L1440 250z" fill="url(#SvgjsLinearGradient1270)"></path><path d="M0 250L181.61120932040754 250L 0 68.38879067959246z" fill="url(#SvgjsLinearGradient1271)"></path></g><defs><mask id="SvgjsMask1269"><rect width="1440" height="250" fill="#ffffff"></rect></mask><linearGradient x1="0%" y1="100%" x2="100%" y2="0%" id="SvgjsLinearGradient1270"><stop stop-color="rgba(10, 17, 151, 0.71)" offset="0"></stop><stop stop-opacity="0" stop-color="rgba(10, 17, 151, 0.71)" offset="0.66"></stop></linearGradient><linearGradient x1="100%" y1="100%" x2="0%" y2="0%" id="SvgjsLinearGradient1271"><stop stop-color="rgba(10, 17, 151, 0.71)" offset="0"></stop><stop stop-opacity="0" stop-color="rgba(10, 17, 151, 0.71)" offset="0.66"></stop></linearGradient></defs></svg>