<svg id="visual" viewBox="0 0 1920 1080" width="1920" height="1080" xmlns="http://www.w3.org/2000/svg" xmlns:xlink="http://www.w3.org/1999/xlink" version="1.1"><path d="M97 0L97 12C97 24 97 48 97 72C97 96 97 120 97 144C97 168 97 192 97 216C97 240 97 264 97 288C97 312 97 336 97 360C97 384 97 408 97 432C97 456 97 480 97 504C97 528 97 552 97 576C97 600 97 624 97 648C97 672 97 696 97 720C97 744 97 768 97 792C97 816 97 840 97 864C97 888 97 912 97 936C97 960 97 984 97 1008C97 1032 97 1056 97 1068L97 1080" fill="none" stroke-linecap="round" stroke-linejoin="miter" stroke="#0066FF" stroke-width="40"></path></svg>