<svg id="visual" viewBox="0 0 1920 1080" width="1920" height="1080" xmlns="http://www.w3.org/2000/svg" xmlns:xlink="http://www.w3.org/1999/xlink" version="1.1"><path d="M93 0L96.8 12C100.7 24 108.3 48 116.8 72C125.3 96 134.7 120 126.2 144C117.7 168 91.3 192 81 216C70.7 240 76.3 264 85.2 288C94 312 106 336 114.2 360C122.3 384 126.7 408 118 432C109.3 456 87.7 480 88.2 504C88.7 528 111.3 552 123 576C134.7 600 135.3 624 136 648C136.7 672 137.3 696 127.3 720C117.3 744 96.7 768 96.7 792C96.7 816 117.3 840 121 864C124.7 888 111.3 912 101.7 936C92 960 86 984 79.8 1008C73.7 1032 67.3 1056 64.2 1068L61 1080" fill="none" stroke-linecap="round" stroke-linejoin="miter" stroke="#0066FF" stroke-width="40"></path></svg>